<?xml version="1.0" encoding="UTF-8"?>
<svg version="1.1" xmlns="http://www.w3.org/2000/svg" width="3619" height="3643">
<path d="M0 0 C3.58896174 0.00564264 7.17791875 0.00846166 10.76688385 0.0110817 C44.05223185 0.0464066 77.22480816 0.27034894 110.41312408 3.06158829 C113.66199586 3.33393172 116.91168693 3.59456166 120.16159821 3.85419083 C220.3023006 11.94400192 319.63767443 29.85556195 438.26462555 65.62457657 C440.45649256 66.31298858 442.64988215 66.99632993 444.84372711 67.67840958 C485.80915021 80.43803774 526.00375573 95.50536982 565.47263336 112.31805801 C566.18532379 112.62143082 566.89801422 112.92480362 567.63230133 113.23736954 C586.68200893 121.35894002 605.50560984 129.93869912 624.22751617 138.7872963 C627.11490424 140.14931278 630.00701114 141.50033232 632.90232086 142.84540176 C642.14662286 147.15330018 651.20829529 151.73022874 660.20700836 156.52899551 C664.07557671 158.58874677 667.9637713 160.60652416 671.86325836 162.60712051 C685.5969106 169.65528974 699.15594255 176.92405844 712.53318024 184.62762833 C715.60695333 186.39530315 718.68781766 188.15016481 721.76950836 189.90399551 C757.67658863 210.401461 792.54900535 232.68767779 826.47263336 256.31805801 C827.14181793 256.78389297 827.8110025 257.24972794 828.50046539 257.72967911 C839.96973044 265.73029641 851.25113346 273.97436101 862.47263336 282.31805801 C863.51484039 283.09149551 863.51484039 283.09149551 864.57810211 283.88055801 C880.24999244 295.52080151 895.63022118 307.51478608 910.72849274 319.88983536 C912.3017226 321.17810449 913.87911584 322.46128526 915.45700836 323.74383926 C920.90521696 328.1764136 926.28610041 332.68152763 931.63523102 337.2326088 C935.0634283 340.14418661 938.53255609 342.99583748 942.03513336 345.81805801 C947.10870829 349.94496007 951.91004478 354.31908359 956.70310211 358.76337051 C958.93181729 360.81919523 961.18031255 362.83422758 963.47263336 364.81805801 C968.38272895 369.07888476 973.1482732 373.49734344 977.93015289 377.90057755 C979.38763319 379.23994612 980.84991046 380.57408926 982.31247711 381.90790176 C997.07878341 395.37785195 1011.49078047 409.16960559 1025.60593414 423.3209877 C1028.12675089 425.8472383 1030.65297074 428.36799945 1033.17966461 430.88837051 C1034.81149628 432.52086196 1036.44301827 434.15366302 1038.07419586 435.78680801 C1038.81594055 436.52652847 1039.55768524 437.26624893 1040.32190704 438.02838516 C1044.38327586 442.10790295 1048.27458913 446.27872733 1052.02301788 450.64825821 C1053.74968505 452.63719151 1055.57825746 454.48900542 1057.47263336 456.31805801 C1060.60017389 459.403898 1063.50645594 462.59930101 1066.36716461 465.93133926 C1068.57855896 468.43813323 1070.85241796 470.87550711 1073.14035797 473.31219864 C1078.40144099 478.91559437 1083.42392046 484.60336534 1088.23044586 490.60712051 C1090.71171148 493.60711762 1093.32151525 496.46936088 1095.97263336 499.31805801 C1100.22799275 503.89730651 1104.24586492 508.6109239 1108.16794586 513.48212051 C1110.68058146 516.57393991 1113.25925467 519.60230035 1115.84763336 522.63055801 C1121.10797615 528.80925673 1126.12758696 535.15872045 1131.10642242 541.56512833 C1132.44870444 543.28735578 1133.79880031 545.00309075 1135.15232086 546.71649551 C1147.23976323 562.01861307 1158.96969853 577.57237165 1170.47263336 593.31805801 C1171.01387848 594.05636856 1171.5551236 594.79467911 1172.11277008 595.5553627 C1181.18997396 607.94716733 1189.8889448 620.58033099 1198.47263336 633.31805801 C1198.95361481 634.03123184 1199.43459625 634.74440567 1199.93015289 635.47919083 C1217.69014029 661.85463368 1234.451969 688.85350646 1250.47263336 716.31805801 C1251.45683258 718.00391006 1251.45683258 718.00391006 1252.46091461 719.72381973 C1262.59519043 737.13648447 1272.18647118 754.79967192 1281.5419693 772.64032364 C1283.29366587 775.98042487 1285.0577104 779.3138763 1286.82419586 782.64618301 C1293.72823932 795.70927649 1300.21773219 808.9330999 1306.47263336 822.31805801 C1307.08795558 823.62708904 1307.70352715 824.93600287 1308.31931305 826.24481583 C1346.92654557 908.40132876 1377.3528852 993.99911005 1439.66013336 1320.56805801 C1439.73903809 1321.51943649 1439.81794281 1322.47081497 1439.89923859 1323.4510231 C1440.39885254 1329.54851058 1440.83775357 1335.64824811 1441.23664093 1341.75314713 C1441.39691759 1344.17429268 1441.56501828 1346.59493043 1441.74011993 1349.01504898 C1444.28734159 1385.0262522 1443.81282414 1421.16236237 1443.78631371 1457.24125016 C1443.78286404 1463.54497348 1443.79234902 1469.84858581 1443.808815 1476.15228653 C1443.91630434 1518.31360538 1443.57213471 1560.24705449 1440.47263336 1602.31805801 C1440.36437453 1603.8260541 1440.25624107 1605.3340592 1440.14826202 1606.84207535 C1439.59005516 1614.53241595 1438.91880587 1622.20754668 1438.16013336 1629.88055801 C1438.0043129 1631.50604568 1438.0043129 1631.50604568 1437.84534454 1633.16437149 C1429.39907696 1721.12047599 1413.11508225 1808.44754602 1388.47263336 1893.31805801 C1388.22940338 1894.15862747 1387.9861734 1894.99919693 1387.73557281 1895.86523819 C1365.74408148 1971.76956201 1337.06168117 2044.83879754 1303.47263336 2116.31805801 C1302.98375641 2117.36042618 1302.49487946 2118.40279434 1301.99118805 2119.47674942 C1296.21716037 2131.76279399 1290.18698287 2143.86409821 1283.78806305 2155.83563614 C1282.38577841 2158.48196691 1281.00865363 2161.14025904 1279.63669586 2163.80243301 C1273.10285944 2176.47296807 1266.29120837 2188.94980144 1259.19528961 2201.31415176 C1257.41653348 2204.41588297 1255.64753515 2207.52305584 1253.87888336 2210.63055801 C1233.38009956 2246.53053011 1211.09990795 2281.39888842 1187.47263336 2315.31805801 C1187.0067984 2315.98724258 1186.54096344 2316.65642715 1186.06101227 2317.34589005 C1178.06039496 2328.8151551 1169.81633036 2340.09655811 1161.47263336 2351.31805801 C1160.69919586 2352.36026505 1160.69919586 2352.36026505 1159.91013336 2353.42352676 C1148.26988987 2369.0954171 1136.2759053 2384.47564583 1123.90085602 2399.57391739 C1122.61258688 2401.14714725 1121.32940611 2402.72454049 1120.04685211 2404.30243301 C1115.61427778 2409.75064161 1111.10916375 2415.13152506 1106.55808258 2420.48065567 C1103.64650477 2423.90885295 1100.7948539 2427.37798074 1097.97263336 2430.88055801 C1093.8457313 2435.95413295 1089.47160779 2440.75546943 1085.02732086 2445.54852676 C1082.97149614 2447.77724194 1080.95646379 2450.0257372 1078.97263336 2452.31805801 C1074.71180662 2457.2281536 1070.29334793 2461.99369785 1065.89011383 2466.77557755 C1064.55074526 2468.23305785 1063.21660211 2469.69533511 1061.88278961 2471.15790176 C1048.41283943 2485.92420806 1034.62108578 2500.33620512 1020.46970367 2514.4513588 C1017.94345307 2516.97217554 1015.42269192 2519.49839539 1012.90232086 2522.02508926 C1011.26982942 2523.65692093 1009.63702835 2525.28844292 1008.00388336 2526.91962051 C1007.2641629 2527.6613652 1006.52444244 2528.40310989 1005.76230621 2529.1673317 C1001.68278843 2533.22870051 997.51196405 2537.12001378 993.14243317 2540.86844254 C991.15349987 2542.5951097 989.30168595 2544.42368212 987.47263336 2546.31805801 C984.38679337 2549.44559854 981.19139036 2552.35188059 977.85935211 2555.21258926 C975.35255815 2557.42398361 972.91518426 2559.69784261 970.47849274 2561.98578262 C964.87509701 2567.24686564 959.18732604 2572.26934511 953.18357086 2577.07587051 C950.18357376 2579.55713613 947.3213305 2582.16693991 944.47263336 2584.81805801 C939.89338487 2589.0734174 935.17976748 2593.09128957 930.30857086 2597.01337051 C927.21675147 2599.52600611 924.18839102 2602.10467932 921.16013336 2604.69305801 C914.98143464 2609.9534008 908.63197092 2614.97301162 902.22556305 2619.95184708 C900.50333559 2621.29412909 898.78760063 2622.64422496 897.07419586 2623.99774551 C881.77207831 2636.08518789 866.21831972 2647.81512318 850.47263336 2659.31805801 C849.36516754 2660.12992569 849.36516754 2660.12992569 848.23532867 2660.95819473 C835.84352404 2670.03539862 823.21036039 2678.73436945 810.47263336 2687.31805801 C809.40287262 2688.03953018 809.40287262 2688.03953018 808.31150055 2688.77557755 C781.9360577 2706.53556494 754.93718492 2723.29739365 727.47263336 2739.31805801 C725.78678131 2740.30225723 725.78678131 2740.30225723 724.06687164 2741.30633926 C706.65420691 2751.44061508 688.99101946 2761.03189583 671.15036774 2770.38739395 C667.8102665 2772.13909052 664.47681508 2773.90313505 661.14450836 2775.66962051 C648.08141488 2782.57366397 634.85759147 2789.06315684 621.47263336 2795.31805801 C620.16360234 2795.93338023 618.85468851 2796.5489518 617.54587555 2797.1647377 C535.38936261 2835.77197022 449.79158132 2866.19830986 123.22263336 2928.50555801 C122.27125488 2928.58446274 121.3198764 2928.66336746 120.33966827 2928.74466324 C113.05509941 2929.34154388 105.7666106 2929.85075955 98.47263336 2930.31805801 C97.47377546 2930.38294104 97.47377546 2930.38294104 96.45473862 2930.44913483 C67.28759853 2932.33106066 38.1671035 2932.68278527 8.94526672 2932.63611603 C5.35630498 2932.63047338 1.76734797 2932.62765437 -1.82161713 2932.62503433 C-35.10696513 2932.58970943 -68.27954144 2932.36576709 -101.46785736 2929.57452774 C-104.71672914 2929.30218431 -107.96642021 2929.04155437 -111.21633148 2928.7819252 C-211.35703388 2920.69211411 -310.6924077 2902.78055408 -429.31935883 2867.01153946 C-431.51122584 2866.32312745 -433.70461543 2865.6397861 -435.89846039 2864.95770645 C-476.86388349 2852.19807829 -517.058489 2837.13074621 -556.52736664 2820.31805801 C-557.59640228 2819.86299881 -557.59640228 2819.86299881 -558.68703461 2819.39874649 C-577.7038994 2811.29117807 -596.49993129 2802.73407164 -615.18752289 2793.89618301 C-618.25585956 2792.44634908 -621.32831229 2791.00571754 -624.40236664 2789.56805801 C-634.2263071 2784.95663998 -643.89143077 2780.1160558 -653.46486664 2775.00555801 C-657.11603869 2773.05787866 -660.78456124 2771.14761245 -664.46486664 2769.25555801 C-677.66745408 2762.46503718 -690.68442922 2755.42394628 -703.55568695 2748.02460098 C-706.64344519 2746.25139772 -709.73745884 2744.48945457 -712.83205414 2742.72821426 C-748.73558137 2722.2300916 -783.605968 2699.94688531 -817.52736664 2676.31805801 C-818.19655121 2675.85222305 -818.86573578 2675.38638809 -819.55519867 2674.90643692 C-831.02446372 2666.90581961 -842.30586674 2658.66175501 -853.52736664 2650.31805801 C-854.56957367 2649.54462051 -854.56957367 2649.54462051 -855.63283539 2648.75555801 C-871.30472572 2637.11531452 -886.68495445 2625.12132995 -901.78322601 2612.74628067 C-903.35645588 2611.45801153 -904.93384912 2610.17483076 -906.51174164 2608.89227676 C-911.95995024 2604.45970243 -917.34083368 2599.9545884 -922.68996429 2595.40350723 C-926.11816157 2592.49192942 -929.58728937 2589.64027855 -933.08986664 2586.81805801 C-938.16344157 2582.69115596 -942.96477805 2578.31703244 -947.75783539 2573.87274551 C-949.98655057 2571.81692079 -952.23504583 2569.80188845 -954.52736664 2567.81805801 C-959.43746222 2563.55723127 -964.20300647 2559.13877258 -968.98488617 2554.73553848 C-970.44236647 2553.39616991 -971.90464374 2552.06202677 -973.36721039 2550.72821426 C-988.13351668 2537.25826408 -1002.54551374 2523.46651043 -1016.66066742 2509.31512833 C-1019.18148416 2506.78887772 -1021.70770401 2504.26811657 -1024.23439789 2501.74774551 C-1025.86622955 2500.11525407 -1027.49775154 2498.482453 -1029.12892914 2496.84930801 C-1029.87067383 2496.10958755 -1030.61241852 2495.3698671 -1031.37664032 2494.60773087 C-1035.43800914 2490.52821308 -1039.3293224 2486.3573887 -1043.07775116 2481.98785782 C-1044.80441832 2479.99892452 -1046.63299074 2478.14711061 -1048.52736664 2476.31805801 C-1051.65490717 2473.23221803 -1054.56118921 2470.03681502 -1057.42189789 2466.70477676 C-1059.63329223 2464.1979828 -1061.90715124 2461.76060892 -1064.19509125 2459.32391739 C-1069.45617427 2453.72052166 -1074.47865374 2448.03275069 -1079.28517914 2442.02899551 C-1081.76644476 2439.02899841 -1084.37624853 2436.16675515 -1087.02736664 2433.31805801 C-1091.28272602 2428.73880952 -1095.30059819 2424.02519213 -1099.22267914 2419.15399551 C-1101.73531474 2416.06217612 -1104.31398794 2413.03381567 -1106.90236664 2410.00555801 C-1112.16270942 2403.82685929 -1117.18232024 2397.47739557 -1122.1611557 2391.0709877 C-1123.50343771 2389.34876024 -1124.85353358 2387.63302528 -1126.20705414 2385.91962051 C-1138.29449651 2370.61750296 -1150.0244318 2355.06374437 -1161.52736664 2339.31805801 C-1162.06861176 2338.57974747 -1162.60985687 2337.84143692 -1163.16750336 2337.08075333 C-1172.24470724 2324.68894869 -1180.94367807 2312.05578504 -1189.52736664 2299.31805801 C-1190.24883881 2298.24829727 -1190.24883881 2298.24829727 -1190.98488617 2297.1569252 C-1208.74487357 2270.78148235 -1225.50670227 2243.78260957 -1241.52736664 2216.31805801 C-1242.18349945 2215.19415665 -1242.83963226 2214.07025528 -1243.51564789 2212.9122963 C-1253.64992371 2195.49963156 -1263.24120445 2177.83644411 -1272.59670258 2159.99579239 C-1274.34839915 2156.65569116 -1276.11244368 2153.32223973 -1277.87892914 2149.98993301 C-1284.7829726 2136.92683953 -1291.27246547 2123.70301613 -1297.52736664 2110.31805801 C-1298.14268885 2109.00902699 -1298.75826043 2107.70011316 -1299.37404633 2106.3913002 C-1337.98127884 2024.23478727 -1368.40761848 1938.63700598 -1430.71486664 1612.06805801 C-1430.79377136 1611.11667953 -1430.87267609 1610.16530106 -1430.95397186 1609.18509293 C-1431.45358581 1603.08760545 -1431.89248685 1596.98786791 -1432.29137421 1590.8829689 C-1432.45165087 1588.46182335 -1432.61975156 1586.0411856 -1432.79485321 1583.62106705 C-1435.34207487 1547.60986382 -1434.86755742 1511.47375365 -1434.84104699 1475.39486587 C-1434.83759732 1469.09114254 -1434.8470823 1462.78753021 -1434.86354828 1456.4838295 C-1434.97103762 1414.32251065 -1434.62686799 1372.38906153 -1431.52736664 1330.31805801 C-1431.4191078 1328.81006193 -1431.31097435 1327.30205683 -1431.2029953 1325.79404068 C-1430.64478844 1318.10370008 -1429.97353914 1310.42856935 -1429.21486664 1302.75555801 C-1429.05904617 1301.13007034 -1429.05904617 1301.13007034 -1428.90007782 1299.47174454 C-1419.5471388 1202.07392076 -1400.50204251 1105.59879022 -1369.22084808 1005.52606583 C-1368.53243607 1003.33419881 -1367.84909473 1001.14080923 -1367.16701508 998.94696426 C-1354.40738691 957.98154116 -1339.34005484 917.78693565 -1322.52736664 878.31805801 C-1322.22399384 877.60536758 -1321.92062103 876.89267715 -1321.60805511 876.15839005 C-1313.5004867 857.14152525 -1304.94338026 838.34549336 -1296.10549164 819.65790176 C-1294.6556577 816.58956509 -1293.21502617 813.51711236 -1291.77736664 810.44305801 C-1287.16594861 800.61911755 -1282.32536442 790.95399388 -1277.21486664 781.38055801 C-1275.26718728 777.72938596 -1273.35692108 774.06086341 -1271.46486664 770.38055801 C-1264.6743458 757.17797057 -1257.6332549 744.16099543 -1250.23390961 731.2897377 C-1248.46070635 728.20197946 -1246.69876319 725.10796581 -1244.93752289 722.01337051 C-1224.43940022 686.10984328 -1202.15619393 651.23945665 -1178.52736664 617.31805801 C-1177.8286142 616.31428116 -1177.8286142 616.31428116 -1177.11574554 615.29022598 C-1169.11512824 603.82096093 -1160.87106364 592.53955791 -1152.52736664 581.31805801 C-1151.75392914 580.27585098 -1151.75392914 580.27585098 -1150.96486664 579.21258926 C-1139.32462314 563.54069893 -1127.33063857 548.1604702 -1114.95558929 533.06219864 C-1113.66732016 531.48896878 -1112.38413939 529.91157553 -1111.10158539 528.33368301 C-1106.66901105 522.88547442 -1102.16389703 517.50459097 -1097.61281586 512.15546036 C-1094.70123804 508.72726308 -1091.84958717 505.25813529 -1089.02736664 501.75555801 C-1084.90046458 496.68198308 -1080.52634106 491.8806466 -1076.08205414 487.08758926 C-1074.02622942 484.85887409 -1072.01119707 482.61037882 -1070.02736664 480.31805801 C-1065.76653989 475.40796243 -1061.34808121 470.64241818 -1056.94484711 465.86053848 C-1055.60547854 464.40305818 -1054.27133539 462.94078091 -1052.93752289 461.47821426 C-1039.60379684 446.8612424 -1025.96049227 432.58387998 -1011.95168304 418.61200333 C-1009.4978591 416.16361585 -1007.04952965 413.70982269 -1004.60158539 411.25555801 C-1003.01466687 409.66929925 -1001.42743875 408.08335014 -999.83986664 406.49774551 C-999.12201996 405.7778746 -998.40417328 405.05800369 -997.66457367 404.31631851 C-993.64555523 400.3156998 -989.53090892 396.48899045 -985.22621918 392.79672623 C-983.05190208 390.90421731 -981.03396594 388.88639884 -979.02736664 386.81805801 C-975.76012289 383.51198455 -972.40721033 380.41060341 -968.87892914 377.38837051 C-966.38305373 375.19100512 -963.95930793 372.92858886 -961.53542328 370.65253067 C-955.9314724 365.39051323 -950.2428682 360.3674185 -944.23830414 355.56024551 C-941.23830703 353.0789799 -938.37606377 350.46917612 -935.52736664 347.81805801 C-930.94811815 343.56269863 -926.23450076 339.54482646 -921.36330414 335.62274551 C-918.27148474 333.11010992 -915.2431243 330.53143671 -912.21486664 327.94305801 C-906.03616792 322.68271523 -899.6867042 317.66310441 -893.28029633 312.68426895 C-891.55806887 311.34198694 -889.8423339 309.99189107 -888.12892914 308.63837051 C-872.82681158 296.55092814 -857.273053 284.82099285 -841.52736664 273.31805801 C-840.41990082 272.50619034 -840.41990082 272.50619034 -839.29006195 271.6779213 C-826.89825732 262.60071741 -814.26509367 253.90174658 -801.52736664 245.31805801 C-800.81419281 244.83707657 -800.10101898 244.35609512 -799.36623383 243.86053848 C-748.01882367 209.28559836 -694.37227862 177.90619772 -638.86721039 150.47821426 C-635.57346637 148.84807164 -632.30067812 147.18005408 -629.03127289 145.50165176 C-611.92896144 136.7676532 -594.4983138 128.91643648 -576.90431976 121.23309708 C-573.49143352 119.74213378 -570.08450965 118.23827853 -566.68041229 116.72737503 C-480.34254953 78.42872639 -389.07517627 50.29368579 -118.29689789 4.41180801 C-117.24450172 4.32086868 -117.24450172 4.32086868 -116.17084503 4.22809219 C-77.46819487 0.99877679 -38.82842742 -0.06201162 0 0 Z " fill="#0B1F3F" transform="translate(1805.5273666381836,343.681941986084)"/>
<path d="M0 0 C1.11503906 0.36351562 2.23007813 0.72703125 3.37890625 1.1015625 C50.69067085 16.63009917 97.93201185 38.8745956 137.29638672 69.67724609 C139.93519726 71.72612478 142.62631519 73.7011641 145.3125 75.6875 C153.77386519 82.0421112 161.85388546 88.7610119 169.671875 95.890625 C171.73153033 97.75675567 173.82388895 99.57069788 175.9375 101.375 C181.22429772 105.97408419 186.08142776 111.01525863 191 116 C193.83072912 118.84005606 196.67352121 121.6675114 199.5234375 124.48828125 C205.9056364 130.81616357 212.22060696 137.11015589 218 144 C218.90735883 145.04557038 219.81637826 146.08970075 220.7265625 147.1328125 C226.98474844 154.3257476 232.97757259 161.65576941 238.70507812 169.27978516 C240.06148111 171.08167344 241.42862023 172.87506701 242.796875 174.66796875 C282.62317502 227.05522952 314.55556299 285.08656547 344.53100586 343.515625 C344.94693996 344.32621872 345.36287407 345.13681244 345.79141223 345.9719696 C358.72647822 371.20501451 371.36723365 396.58746929 384.04327929 421.9512583 C386.61678381 427.10058004 389.19111481 432.24948787 391.76597404 437.39813232 C392.13753742 438.14110585 392.5091008 438.88407937 392.89192368 439.64956725 C393.6475002 441.16040047 394.40307848 442.67123282 395.1586585 444.18206429 C402.17417167 458.21026714 409.18727188 472.23967514 416.19948905 486.26952577 C422.18552161 498.24607141 428.17366752 510.22155845 434.16333008 522.19628906 C441.17376903 536.21179173 448.18288597 550.22795426 455.18995136 564.24514389 C455.93942188 565.74440339 456.68889403 567.24366207 457.43836784 568.74291992 C457.80683925 569.48001702 458.17531066 570.21711411 458.55494787 570.97654748 C461.12310671 576.11372035 463.69217966 581.25043543 466.2616291 586.38696289 C469.39626957 592.65341325 472.52944115 598.92059554 475.6608404 605.18866622 C477.25118734 608.37195142 478.84211704 611.5549411 480.43484879 614.73703384 C487.29273154 628.44181101 494.05640369 642.18275574 500.62725639 656.02767563 C504.25364769 663.65811045 508.03358832 671.21189293 511.81640625 678.765625 C512.60639274 680.34627621 513.39626082 681.92698661 514.1860199 683.50775146 C515.81892924 686.77502131 517.45323463 690.04158755 519.08862305 693.30761719 C521.15420601 697.43306918 523.21613352 701.56033605 525.27713203 705.68807983 C536.30029437 727.7689458 536.30029437 727.7689458 547.70288086 749.65527344 C550.41067611 754.75158714 553.03403676 759.8905085 555.65625 765.03125 C556.13589706 765.97152039 556.61554413 766.91179077 557.10972595 767.8805542 C559.06397446 771.71441454 561.01607381 775.54936747 562.96826172 779.38427734 C571.91086087 796.94466948 581.0351152 814.3977006 590.375 831.75 C595.03906315 840.42762518 599.65190101 849.12933067 604.1875 857.875 C608.45443639 866.09655428 612.82928007 874.25114663 617.28540039 882.37158203 C621.11942265 889.36409356 624.89314679 896.38764647 628.64901733 903.42230225 C634.21302404 913.84187517 639.84195518 924.21942089 645.61572266 934.52441406 C648.4848718 939.65548502 651.33381932 944.79781609 654.1875 949.9375 C655.15361046 951.67596027 656.11972125 953.41442037 657.08589172 955.15284729 C660.01958161 960.43172895 662.94941387 965.71271616 665.875 970.99609375 C672.9457435 983.75880382 680.08492682 996.4765069 687.35449219 1009.12695312 C689.21585736 1012.37688568 691.06557827 1015.63335823 692.9140625 1018.890625 C719.29985509 1065.35377459 748.44545701 1111.06748523 782.57177734 1152.26757812 C784.6126249 1154.74310877 786.61427136 1157.24998215 788.625 1159.75 C793.07269518 1165.17975926 797.8008325 1170.33050815 802.57958984 1175.46630859 C804.0164481 1177.01775988 805.44154671 1178.57921655 806.86328125 1180.14453125 C814.52055529 1188.57240658 822.33220842 1196.6042734 831 1204 C832.34964844 1205.18335937 832.34964844 1205.18335937 833.7265625 1206.390625 C876.69450014 1243.79627961 928.28057206 1267.21435863 984 1278 C984.89992676 1278.1762793 985.79985352 1278.35255859 986.72705078 1278.53417969 C996.91691517 1280.48819937 1007.11229423 1281.95868749 1017.4375 1282.9609375 C1018.26898056 1283.04276779 1019.10046112 1283.12459808 1019.95713806 1283.20890808 C1024.09924902 1283.61334254 1028.24153482 1283.99580338 1032.38891602 1284.34204102 C1053.28194219 1286.21256353 1071.44647147 1293.54757706 1086 1309 C1088.65453011 1312.17949316 1090.89565648 1315.43505814 1093 1319 C1093.53238281 1319.90105469 1094.06476563 1320.80210938 1094.61328125 1321.73046875 C1104.62906375 1340.14658496 1105.33616098 1359.45794427 1099.6171875 1379.31640625 C1097.48380273 1385.9454243 1094.13677317 1391.39712907 1090 1397 C1089.11441406 1398.25876953 1089.11441406 1398.25876953 1088.2109375 1399.54296875 C1078.12401772 1413.29157858 1063.08324532 1422.7996734 1046.26538086 1425.68261719 C1035.40844959 1427.20368742 1025.04000923 1426.79088393 1014.1875 1425.75 C1012.63333175 1425.60765298 1011.07913208 1425.46564871 1009.52490234 1425.32397461 C996.98221127 1424.16264154 984.45978519 1422.86605933 972 1421 C971.20287598 1420.88108398 970.40575195 1420.76216797 969.58447266 1420.63964844 C944.66065242 1416.74935392 919.88978497 1409.6172526 895.8125 1402.1875 C894.68134766 1401.83921143 893.55019531 1401.49092285 892.38476562 1401.13208008 C885.9787067 1399.10243287 879.79329033 1396.75405488 873.61450195 1394.11352539 C870.67002415 1392.85946215 867.6907924 1391.72994575 864.6875 1390.625 C852.94017934 1386.12278395 841.75010064 1380.41587792 830.5 1374.8125 C829.47285889 1374.30130615 828.44571777 1373.7901123 827.38745117 1373.26342773 C822.16818486 1370.64802437 817.01666708 1367.98576061 812 1365 C811.20303711 1364.52925049 810.40607422 1364.05850098 809.58496094 1363.57348633 C787.77352859 1350.62023869 767.46350089 1336.27276304 748 1320 C747.47857422 1319.56494141 746.95714844 1319.12988281 746.41992188 1318.68164062 C733.17170342 1307.59192766 720.67768072 1295.74976928 708.4375 1283.5625 C707.69983398 1282.82950684 706.96216797 1282.09651367 706.20214844 1281.34130859 C702.16479469 1277.29199913 698.30291583 1273.14665201 694.57006836 1268.81518555 C692.45407677 1266.3688479 690.25823317 1263.99975301 688.0625 1261.625 C684.28336993 1257.47703592 680.70117243 1253.24174984 677.23828125 1248.828125 C675.54830885 1246.6928021 673.83994296 1244.58302707 672.10546875 1242.484375 C664.26963072 1232.98675521 656.88227974 1223.22073688 649.64599609 1213.26025391 C648.10181754 1211.13981412 646.54778415 1209.02715372 644.98828125 1206.91796875 C637.51850822 1196.81074882 630.33284621 1186.53156075 623.3671875 1176.0703125 C622.93634354 1175.42349518 622.50549957 1174.77667786 622.06159973 1174.11026001 C603.08005561 1145.59099544 584.85253318 1116.83382813 568 1087 C566.85045047 1084.96994445 565.70072054 1082.93999104 564.55078125 1080.91015625 C561.88511961 1076.20169572 559.22581301 1071.48967685 556.56787109 1066.77685547 C554.99223996 1063.9862562 553.41273289 1061.19788613 551.83203125 1058.41015625 C544.11595047 1044.79652419 536.49758939 1031.13035211 528.91162109 1017.44384766 C527.01465746 1014.02640589 525.11181619 1010.61230644 523.20703125 1007.19921875 C515.8018673 993.92201739 508.51356957 980.5887377 501.328125 967.19140625 C498.26732571 961.48726963 495.17067351 955.80342398 492.0625 950.125 C482.30939619 932.282798 472.71003821 914.36030441 463.35205078 896.30761719 C459.94731527 889.75960784 456.43446816 883.27749412 452.875 876.8125 C448.6120662 869.06239963 444.5558896 861.23666236 440.63696289 853.30761719 C437.93711473 847.85096885 435.16272176 842.44206147 432.3125 837.0625 C412.86034213 800.30296818 394.05443332 763.1878867 375.4375 726 C374.95845215 725.04449249 374.4794043 724.08898499 373.98583984 723.10452271 C365.44402505 706.05764123 365.44402505 706.05764123 361.45703125 697.40625 C356.87527037 687.48573579 351.90861291 677.757667 346.99023438 668.00097656 C342.19696794 658.48526178 337.47550628 648.94375189 332.90647888 639.31813049 C327.17280207 627.28963922 321.25353813 615.35857776 315.29321289 603.44116211 C314.16806187 601.18785769 313.04307192 598.93447283 311.91822815 596.68101501 C309.21082067 591.25837027 306.50157045 585.83665007 303.79125578 580.4154579 C301.58376897 576.00000414 299.37692202 571.58423115 297.1704998 567.16824532 C290.87894346 554.57636069 284.58573994 541.98530133 278.29037268 529.39532154 C277.95325331 528.72112276 277.61613394 528.04692397 277.26879883 527.35229492 C276.93125576 526.67724966 276.59371268 526.0022044 276.24594104 525.30670322 C270.77433379 514.3638953 265.3067246 503.41909522 259.84091563 492.47339015 C254.1935014 481.16412423 248.54304506 469.8563827 242.88951105 458.55017477 C239.72954071 452.23056329 236.5707547 445.91036687 233.41526985 439.58851433 C230.44679404 433.64138793 227.47406358 427.69640652 224.49863243 421.75275612 C223.41701756 419.59056008 222.33672659 417.42770109 221.25797272 415.26407623 C214.97749503 402.66985991 208.48896832 390.22421418 201.68495846 377.90433598 C199.08420439 373.18531308 196.59521775 368.41326365 194.125 363.625 C188.68372115 353.20865955 182.73969949 343.09913644 176.75830078 332.98583984 C175.0829691 330.1408931 173.42702097 327.28566209 171.77734375 324.42578125 C163.74597884 310.56257423 155.02182169 297.23654252 146 284 C145.5251416 283.29955566 145.0502832 282.59911133 144.56103516 281.87744141 C123.59820697 250.97331074 98.52790805 220.14952308 69 197 C67.29090396 195.56340689 65.58259372 194.1258785 63.875 192.6875 C44.259212 176.68880766 22.50192557 164.41693883 0 153 C-0.67998047 152.64687744 -1.35996094 152.29375488 -2.06054688 151.92993164 C-28.22991989 138.48178162 -57.38501196 130.27807723 -86 124 C-87.05807861 123.76120117 -88.11615723 123.52240234 -89.20629883 123.27636719 C-98.73245632 121.16628533 -108.30384661 119.52279655 -117.9375 118 C-118.75926727 117.86860626 -119.58103455 117.73721252 -120.42770386 117.60183716 C-131.78606738 115.79612893 -143.10416035 114.40546653 -154.5625 113.4375 C-179.33095451 111.28248489 -201.05360635 105.92993375 -218.08984375 86.6328125 C-230.79358125 69.52165586 -235.74039434 51.13216159 -234 30 C-231.38434962 13.5658193 -222.95965751 -0.7309706 -211 -12 C-210.20851563 -12.74894531 -209.41703125 -13.49789063 -208.6015625 -14.26953125 C-161.94608654 -54.80244475 -50.54740229 -16.60439807 0 0 Z " fill="#0F8AD9" transform="translate(1177,1108)"/>
<path d="M0 0 C1.24934326 0.01123901 1.24934326 0.01123901 2.52392578 0.02270508 C22.67414218 0.37391138 39.32001545 8.23547199 53.625 22.25 C54.25277344 22.84167969 54.88054688 23.43335938 55.52734375 24.04296875 C59.53798861 28.1627468 62.20185593 32.80103804 64.8125 37.875 C65.1336377 38.48931885 65.45477539 39.1036377 65.78564453 39.73657227 C72.37159333 53.17224818 73.2036249 65.8030494 73.12277794 80.44687653 C73.12634844 82.48060818 73.13167247 84.51433736 73.13857967 86.54806042 C73.15246986 92.12965306 73.14152132 97.71096041 73.12646749 103.29253978 C73.11450353 109.36741104 73.12579244 115.44224678 73.13410914 121.51711798 C73.14547471 132.16165215 73.14211406 142.80609081 73.1287384 153.45061493 C73.11446412 164.8681077 73.10893594 176.28555522 73.11401749 187.70305634 C73.11433322 188.4250251 73.11464895 189.14699386 73.11497424 189.89084046 C73.11662233 193.57238125 73.11840805 197.25392196 73.120239 200.93546266 C73.13317173 227.56325493 73.12648913 254.19101368 73.10905075 280.81880188 C73.09181235 307.18858668 73.08198736 333.55835566 73.08238602 359.92814636 C73.08240186 361.58430948 73.08241731 363.24047259 73.08243235 364.89663571 C73.0825071 371.55199545 73.08263995 378.2073552 73.08284398 384.86271494 C73.08339921 403.46636602 73.08262184 422.07001691 73.08086586 440.67366791 C73.08078652 441.52080228 73.08070717 442.36793665 73.08062543 443.24074176 C73.07800981 470.23124958 73.0696682 497.2217524 73.05714989 524.21225739 C73.05674401 525.08760089 73.05633813 525.96294439 73.05591995 526.86481345 C73.04930248 541.07988221 73.04231188 555.29495079 73.03530252 569.51001936 C73.00751529 625.90902704 72.99423675 682.30801672 72.99560547 738.70703125 C72.99564625 740.49028625 72.99568667 742.27354126 72.99572675 744.05679626 C72.99580711 747.61906792 72.99588865 751.18133958 72.99597096 754.74361124 C72.9961538 762.7307515 72.99632251 770.71789175 72.99646414 778.70503201 C72.99649568 780.47401692 72.99652856 782.24300183 72.9965628 784.01198675 C72.99745297 831.24793753 72.98852149 878.48388585 72.97585833 925.7198348 C72.97563799 926.54424841 72.97541765 927.36866201 72.97519063 928.21805785 C72.97117356 943.2446588 72.97117356 943.2446588 72.96914144 950.59751499 C72.96414824 968.73788767 72.96026758 986.8782595 72.95951414 1005.01863289 C72.95947908 1005.83654002 72.95944402 1006.65444715 72.9594079 1007.49713935 C72.95926949 1010.79355836 72.95913898 1014.08997737 72.95901293 1017.38639638 C72.95784182 1047.94667433 72.95032808 1078.50693754 72.93005554 1109.0672093 C72.92814032 1111.99419024 72.92625366 1114.92117119 72.92438889 1117.84815216 C72.92392782 1118.56649723 72.92346675 1119.28484229 72.92299172 1120.02495539 C72.91585282 1131.41695139 72.9153901 1142.80893747 72.91766055 1154.20093507 C72.91974459 1165.39193085 72.9145244 1176.58290451 72.90196029 1187.77389514 C72.8954331 1193.76450773 72.89211687 1199.75507636 72.89748149 1205.74569112 C72.90228485 1211.18832376 72.89799462 1216.63086822 72.88624526 1222.07348961 C72.88363093 1224.0369316 72.88440959 1226.00038157 72.88887847 1227.96382022 C72.89443821 1230.61901292 72.88778857 1233.27390177 72.87799966 1235.92907572 C72.88254488 1236.69292445 72.88709009 1237.45677318 72.89177304 1238.24376884 C72.86002503 1242.63637541 72.20725822 1246.15997671 70.625 1250.25 C70.24504763 1251.91554465 69.87003767 1253.58222457 69.5 1255.25 C64.96707955 1271.78842757 53.04737264 1285.42578516 38.625 1294.25 C37.944375 1294.70890625 37.26375 1295.1678125 36.5625 1295.640625 C30.45112024 1299.48338651 23.86680926 1300.88845797 16.90625 1302.453125 C13.79389479 1302.90768577 13.79389479 1302.90768577 12.625 1304.25 C9.06975445 1304.50342891 5.50070009 1304.43523477 1.9375 1304.4375 C0.94298828 1304.44974609 -0.05152344 1304.46199219 -1.07617188 1304.47460938 C-6.28440568 1304.48500505 -10.49217667 1304.24589859 -15.375 1302.25 C-16.86386719 1301.84201172 -16.86386719 1301.84201172 -18.3828125 1301.42578125 C-35.86975183 1296.58290708 -50.06141682 1285.87131555 -59.375 1270.25 C-59.94537089 1269.30704446 -59.94537089 1269.30704446 -60.52726442 1268.34503932 C-63.62936616 1263.02842873 -65.698329 1257.96652703 -67.14852381 1251.99197197 C-67.35920695 1251.12792116 -67.5698901 1250.26387035 -67.78695759 1249.37363618 C-69.9635707 1239.71267842 -70.0667327 1230.23715937 -69.99861908 1220.37844849 C-70.00323998 1218.34465364 -70.0100512 1216.31086283 -70.01882517 1214.27708167 C-70.03651583 1208.72319492 -70.02339034 1203.16975702 -70.00493505 1197.61588885 C-69.9903787 1191.56058585 -70.00499996 1185.50533912 -70.01582003 1179.45003796 C-70.03076872 1168.84898053 -70.02738759 1158.24807179 -70.01140213 1147.64702797 C-69.99435216 1136.28041924 -69.98828004 1124.91388233 -69.99541855 1113.54726219 C-69.99586345 1112.82755398 -69.99630835 1112.10784577 -69.99676674 1111.36632822 C-69.9990826 1107.69606456 -70.00156921 1104.02580103 -70.00411103 1100.35553751 C-70.0220877 1073.83227235 -70.01552036 1047.30905835 -69.99534607 1020.78579712 C-69.97540117 994.52144829 -69.96452776 968.2571241 -69.96620178 941.99276733 C-69.96629511 940.34210142 -69.96638771 938.6914355 -69.96647959 937.04076958 C-69.96686481 930.40722601 -69.96731633 923.77368244 -69.96785098 917.14013887 C-69.96932306 898.59835443 -69.96911653 880.0565702 -69.967659 861.51478577 C-69.9675933 860.67052245 -69.9675276 859.82625912 -69.96745991 858.95641206 C-69.96525407 832.06403133 -69.95578876 805.17165832 -69.94109344 778.27928162 C-69.94061732 777.40733249 -69.94014119 776.53538336 -69.93965063 775.63701154 C-69.93188854 761.47774975 -69.92367832 747.31848822 -69.91544303 733.1592267 C-69.88279856 676.98423544 -69.86974809 620.80927774 -69.87597656 564.63427734 C-69.87617051 562.85806245 -69.876364 561.08184755 -69.87655704 559.30563265 C-69.87684641 556.64386127 -69.87713581 553.98208989 -69.87742616 551.32031851 C-69.87848508 541.59660232 -69.8794981 531.87288612 -69.88045502 522.14916992 C-69.8805861 520.84116859 -69.8805861 520.84116859 -69.88071983 519.50674298 C-69.88538711 472.43568489 -69.87561585 425.3646309 -69.86061716 378.29357529 C-69.86009141 376.6342565 -69.85956601 374.97493771 -69.85904097 373.31561892 C-69.85878115 372.49537574 -69.85852133 371.67513256 -69.85825363 370.83003353 C-69.85772958 369.1752253 -69.85720596 367.52041706 -69.85668276 365.86560883 C-69.85537808 361.74308419 -69.85406048 357.62055955 -69.85271757 353.49803492 C-69.84687389 335.42747422 -69.84286336 317.3569158 -69.84383965 299.28635406 C-69.84388266 298.47214098 -69.84392567 297.65792789 -69.84396998 296.81904168 C-69.8441955 292.71966492 -69.84444956 288.62028816 -69.84471158 284.5209114 C-69.84657455 254.89900391 -69.83853079 225.27712669 -69.81307012 195.65522915 C-69.81060261 192.73732924 -69.80817924 189.81942929 -69.80578995 186.90152931 C-69.80519867 186.18543016 -69.8046074 185.469331 -69.80399821 184.73153187 C-69.79489715 173.39213236 -69.79579504 162.05275676 -69.80083061 150.71335565 C-69.80556381 139.56408802 -69.79930278 128.41486861 -69.78211627 117.2656094 C-69.77322144 111.30159728 -69.76907343 105.33768511 -69.77804345 99.37367082 C-69.78609927 93.94820275 -69.78036374 88.52293073 -69.76362656 83.09748409 C-69.76001911 81.14701356 -69.76142492 79.19652566 -69.76846571 77.24606451 C-69.81285618 63.92203843 -68.94120384 52.0892443 -62.625 40.0625 C-62.27501953 39.38251953 -61.92503906 38.70253906 -61.56445312 38.00195312 C-58.71041695 32.59838011 -55.49121815 27.78512531 -51.375 23.25 C-50.77171875 22.56679687 -50.1684375 21.88359375 -49.546875 21.1796875 C-36.89357192 7.65196917 -18.44754442 -0.22073662 0 0 Z " fill="#E4E4E4" transform="translate(2606.375,1241.75)"/>
<path d="M0 0 C3.5042137 2.83925749 6.77924208 5.84463818 10 9 C10.62777344 9.59167969 11.25554687 10.18335938 11.90234375 10.79296875 C17.99117078 17.04747815 21.42873605 25.13970731 25 33 C25.54720703 34.20076172 25.54720703 34.20076172 26.10546875 35.42578125 C28.42927595 42.11306923 29.29559925 48.61116052 29.25415033 55.66096765 C29.25732766 56.48941005 29.26050498 57.31785245 29.26377859 58.17139916 C29.27197428 60.94102464 29.26599647 63.71043299 29.26006222 66.48006153 C29.26305975 68.496905 29.26693053 70.51374734 29.27159455 72.53058764 C29.28189291 78.08862212 29.27971633 83.64659304 29.27553919 89.20463293 C29.27317682 95.2455644 29.28233706 101.28648011 29.29002339 107.32740563 C29.30188111 117.92049893 29.30630623 128.51357241 29.30570221 139.10667038 C29.30508026 150.4730542 29.3087628 161.83942435 29.31768227 173.20580482 C29.31824205 173.92378364 29.31880184 174.64176245 29.31937859 175.38149819 C29.32167024 178.30574797 29.3239886 181.22999773 29.32634189 184.15424746 C29.35085255 214.66214087 29.36100816 245.17002869 29.36586904 275.67793081 C29.36639275 278.96203493 29.36691859 282.24613904 29.36744571 285.53024316 C29.36757477 286.3452086 29.36770383 287.16017404 29.3678368 287.99983541 C29.37074257 306.06026508 29.37690122 324.12069318 29.38354302 342.18112181 C29.38626651 349.61817347 29.38889757 357.05522516 29.39152867 364.49227685 C29.39181958 365.31401822 29.39211049 366.1357596 29.39241022 366.98240223 C29.40903389 414.07547553 29.42089043 461.16854808 29.42332363 508.26162434 C29.42341826 510.02412595 29.42351327 511.78662755 29.42360866 513.54912916 C29.42403641 521.50663512 29.42444178 529.46414108 29.42484702 537.42164704 C29.42502862 540.97007856 29.42521351 544.51851007 29.42539909 548.06694159 C29.42549111 549.84299649 29.42558151 551.61905139 29.42567028 553.39510629 C29.42848401 609.54182197 29.45020523 665.68850174 29.48706055 721.83520508 C29.51453994 763.70623028 29.54042235 805.57724861 29.54700565 847.4482832 C29.54720581 848.7129736 29.54720581 848.7129736 29.54741001 850.0032133 C29.55028255 868.51343844 29.55169957 887.02366344 29.55176822 905.5338888 C29.5518079 912.15755712 29.55196485 918.78122545 29.55218274 925.40489377 C29.55223639 927.05267092 29.5522845 928.70044806 29.55232707 930.3482252 C29.55307009 956.58822138 29.56872502 982.82818211 29.59193837 1009.06816721 C29.61522259 1035.50475149 29.62242448 1061.94129018 29.6077575 1088.37788207 C29.60572996 1092.03484914 29.60387599 1095.69181628 29.60212517 1099.34878349 C29.60177511 1100.06561754 29.60142506 1100.78245158 29.60106439 1101.52100786 C29.59598708 1112.8498402 29.6076511 1124.1785902 29.62636972 1135.5074056 C29.64444555 1146.66008947 29.64412535 1157.81265671 29.6258074 1168.96535071 C29.61652988 1174.925921 29.61505962 1180.88620402 29.63577347 1186.84675197 C29.65448922 1192.27864187 29.64982102 1197.71001052 29.62718253 1203.14188091 C29.62305522 1205.08569487 29.62714299 1207.02955004 29.64088022 1208.97331984 C29.7963281 1232.54633392 24.76880949 1253.17189606 7.796875 1270.375 C3.81246915 1274.11455409 -0.34701687 1277.15310901 -5 1280 C-5.680625 1280.45890625 -6.36125 1280.9178125 -7.0625 1281.390625 C-23.16048835 1291.51284495 -44.47170807 1291.27615556 -62.30859375 1287.25390625 C-81.51532104 1282.06601472 -95.6355902 1268.76049144 -105.4445856 1251.89316271 C-107.97336019 1247.30093163 -109.54014692 1242.82201103 -110.77334923 1237.74064672 C-110.98402802 1236.87656315 -111.19470682 1236.01247959 -111.41176983 1235.12221167 C-113.58689068 1225.4686371 -113.69302226 1216.00095973 -113.62641239 1206.14965248 C-113.63133755 1204.11816799 -113.63845135 1202.08668787 -113.64752635 1200.05521768 C-113.66604077 1194.5077362 -113.6537545 1188.96069909 -113.63613641 1183.41323078 C-113.6224863 1177.36483538 -113.63798877 1171.31650046 -113.64968723 1165.26811063 C-113.66617214 1154.67912859 -113.66432264 1144.09029277 -113.64986038 1133.50131989 C-113.63444099 1122.14760827 -113.62998333 1110.79396999 -113.63871193 1099.4402504 C-113.63925731 1098.72135309 -113.63980269 1098.00245578 -113.6403646 1097.2617737 C-113.64262276 1094.33350772 -113.64495934 1091.40524182 -113.64739507 1088.47697598 C-113.67003713 1061.24534145 -113.66827757 1034.01376 -113.65091133 1006.78212357 C-113.63419925 980.54568491 -113.62611437 954.30927045 -113.6301403 928.07282639 C-113.63038067 926.423854 -113.63061986 924.77488162 -113.63085788 923.12590923 C-113.63182668 916.49913507 -113.63284911 909.87236092 -113.63394299 903.24558679 C-113.63697129 884.72257455 -113.63829471 866.19956239 -113.63831234 847.67654991 C-113.63831361 846.83313697 -113.63831487 845.98972403 -113.63831618 845.12075312 C-113.63823609 818.25518433 -113.63068825 791.38962302 -113.61790562 764.52405739 C-113.61749193 763.65297434 -113.61707824 762.78189129 -113.61665202 761.88441179 C-113.60990874 747.73927335 -113.60275491 733.59413512 -113.59557279 719.4489969 C-113.56710826 663.33528777 -113.56115109 607.22162432 -113.57641602 551.10791016 C-113.57737545 547.56095595 -113.57833246 544.01400174 -113.57928873 540.46704753 C-113.5795252 539.59007094 -113.57976166 538.71309435 -113.5800053 537.80954272 C-113.58261816 528.09712225 -113.58515073 518.38470177 -113.5875864 508.67228127 C-113.58780622 507.80128598 -113.58802603 506.93029069 -113.58825251 506.03290161 C-113.59497555 479.18949711 -113.59669474 452.34609635 -113.59282589 425.50269127 C-113.59270443 424.65998144 -113.59258298 423.81727161 -113.59245784 422.94902512 C-113.58972971 404.45015213 -113.58566662 385.95127959 -113.58041219 367.45240715 C-113.57853386 360.83351141 -113.57670742 354.21461566 -113.57488665 347.5957199 C-113.5742024 345.12721573 -113.57350086 342.65871156 -113.57279913 340.19020739 C-113.56774548 322.13920763 -113.56541896 304.08821291 -113.57023358 286.03721285 C-113.57045026 285.22403991 -113.57066694 284.41086698 -113.57089019 283.57305244 C-113.57199899 279.47896881 -113.57315797 275.38488519 -113.57433859 271.29080158 C-113.58286663 241.69998171 -113.5786704 212.10921205 -113.5515715 182.5184017 C-113.54895689 179.60271559 -113.54640344 176.68702943 -113.54389763 173.77134323 C-113.54327648 173.05579206 -113.54265532 172.34024089 -113.54201535 171.60300635 C-113.53253817 160.27791273 -113.53641265 148.95286497 -113.54584048 137.62777297 C-113.55482565 126.48918283 -113.5491454 115.35067482 -113.52894809 104.21209258 C-113.51854871 98.25516187 -113.5144593 92.298411 -113.52792663 86.34148236 C-113.54004784 80.92007187 -113.53370348 75.49900539 -113.51276654 70.07762464 C-113.50845267 68.13088499 -113.51079464 66.18411596 -113.52070096 64.23739674 C-113.58742031 50.08901286 -111.98133043 37.69359456 -105.4375 24.875 C-104.93259033 23.88016602 -104.93259033 23.88016602 -104.41748047 22.86523438 C-100.67193917 15.86277389 -95.74896267 10.41698032 -90 5 C-89.20851563 4.25105469 -88.41703125 3.50210937 -87.6015625 2.73046875 C-63.3280234 -18.35767237 -25.76617117 -18.48806438 0 0 Z " fill="#0983D1" transform="translate(1054,1255)"/>
<path d="M0 0 C3.08402439 -0.05856355 6.16751648 -0.09665248 9.25195312 -0.12548828 C10.16912109 -0.13870117 11.08628906 -0.15191406 12.03125 -0.16552734 C31.80851146 -0.1871971 49.27187389 7.14990502 63.65429688 20.62060547 C77.79706653 35.32814462 84.6866952 53.84622603 84.47680664 74.04443359 C83.88341197 90.15320861 77.48476196 103.33683733 68.00195312 116.06201172 C67.28007812 117.07263672 66.55820313 118.08326172 65.81445312 119.12451172 C56.19173526 130.26162453 42.17781332 137.23902523 28.00195312 140.06201172 C27.22119919 140.23084366 26.44044525 140.3996756 25.6360321 140.57362366 C23.10795137 141.04235844 20.6955244 141.27876317 18.13012695 141.41918945 C17.18756546 141.47272079 16.24500397 141.52625214 15.27388 141.58140564 C14.26246445 141.63559158 13.25104889 141.68977753 12.20898438 141.74560547 C10.02864278 141.8699008 7.84830434 141.99425163 5.66796875 142.11865234 C2.26123268 142.30876745 -1.14558221 142.49731802 -4.55249023 142.68432617 C-28.02086777 143.98172861 -50.94110053 146.45204445 -73.99804688 151.12451172 C-74.72684052 151.27207916 -75.45563416 151.41964661 -76.20651245 151.57168579 C-93.80789875 155.1783332 -111.71861836 159.61223214 -128.0690918 167.17993164 C-130.70408174 168.38487009 -133.40359874 169.37738074 -136.12304688 170.37451172 C-169.12163 182.99274165 -198.45247431 203.02105126 -224.99804688 226.06201172 C-226.06539062 226.97853516 -226.06539062 226.97853516 -227.15429688 227.91357422 C-229.11856535 229.61218343 -231.06161219 231.33173738 -232.99804688 233.06201172 C-233.84109375 233.81224609 -234.68414063 234.56248047 -235.55273438 235.33544922 C-241.80424314 240.97705469 -247.84545067 246.80579579 -253.81054688 252.74951172 C-254.86810181 253.80017822 -254.86810181 253.80017822 -255.94702148 254.87207031 C-259.94250813 258.87933471 -263.75945592 262.98821906 -267.45483398 267.27368164 C-269.3864498 269.51210687 -271.37820391 271.69241338 -273.37304688 273.87451172 C-277.26851258 278.19110885 -280.96662905 282.63602302 -284.62304688 287.15576172 C-287.16469874 290.26594097 -289.76406024 293.32096296 -292.37304688 296.37451172 C-297.22271902 302.06749411 -301.86374084 307.90577742 -306.45507812 313.80810547 C-308.55627564 316.50831154 -310.70641168 319.16390204 -312.87304688 321.81201172 C-322.39636779 333.691819 -330.9828464 346.34728204 -339.54492188 358.92871094 C-341.02538584 361.10214745 -342.51121605 363.27183282 -343.99804688 365.44091797 C-348.0127219 371.30465333 -352.00795801 377.18152692 -355.99804688 383.06201172 C-356.78577484 384.22283264 -356.78577484 384.22283264 -357.5894165 385.40710449 C-361.31679795 390.90149099 -365.03927387 396.39917186 -368.75787354 401.89950562 C-370.02246978 403.76917251 -371.28802187 405.63819332 -372.55462646 407.50650024 C-380.02967342 418.53532929 -387.34460404 429.63856837 -394.40014648 440.94091797 C-396.81753643 444.80282109 -399.32425668 448.59839706 -401.87304688 452.37451172 C-407.808404 461.20444005 -413.48243932 470.19825014 -419.17480469 479.18603516 C-421.56357074 482.9540673 -423.96075122 486.71670751 -426.3581543 490.47924805 C-442.49374588 515.8064797 -458.44850318 541.24253774 -474.16601562 566.83154297 C-477.05735981 571.53726138 -479.96230291 576.23426145 -482.8762207 580.92602539 C-490.29280852 592.8689729 -497.58761863 604.88461067 -504.87310791 616.9077301 C-508.30327483 622.56778089 -511.7431959 628.22186547 -515.18554688 633.87451172 C-515.75354004 634.80739014 -516.3215332 635.74026855 -516.90673828 636.70141602 C-519.1664352 640.41257587 -521.42648842 644.12351869 -523.68652344 647.83447266 C-532.74504401 662.70924217 -541.78826934 677.59325488 -550.82470703 692.48144531 C-553.67629575 697.17956114 -556.52856031 701.87726658 -559.38085938 706.57495117 C-560.79112494 708.89763873 -562.20127501 711.22039635 -563.61132812 713.54321289 C-566.84422813 718.86869971 -570.07775245 724.19380357 -573.31387329 729.51733398 C-580.37424757 741.13198065 -587.4252855 752.75152864 -594.40600586 764.41430664 C-600.8642526 775.19334217 -607.40101308 785.92496795 -613.93017578 796.66113281 C-615.83277677 799.79020385 -617.73398302 802.92011714 -619.63476562 806.05029297 C-627.69428122 819.31567215 -635.81768994 832.54107132 -643.96142578 845.75488281 C-645.99048034 849.04972494 -648.01627327 852.34654943 -650.04101562 855.64404297 C-657.09722795 867.13243331 -664.19101848 878.59537211 -671.3515625 890.01904297 C-675.96264074 897.38322039 -680.51834822 904.78019614 -685.06054688 912.18701172 C-691.71959264 923.03547531 -698.49173786 933.80566612 -705.36962891 944.51660156 C-707.00523427 947.07324647 -708.62597569 949.63883157 -710.24414062 952.20654297 C-711.24523366 953.78349862 -712.24652486 955.36032848 -713.24804688 956.93701172 C-713.70219971 957.663479 -714.15635254 958.38994629 -714.62426758 959.13842773 C-715.69571524 960.81480164 -716.83962771 962.44451532 -717.99804688 964.06201172 C-718.65804688 964.06201172 -719.31804687 964.06201172 -719.99804688 964.06201172 C-720.32377686 963.45542725 -720.64950684 962.84884277 -720.98510742 962.22387695 C-726.99287242 951.04983226 -733.04093055 939.90417446 -739.31054688 928.87451172 C-744.24070767 920.19634582 -749.11343253 911.48806337 -753.93554688 902.74951172 C-754.44145355 901.8327919 -754.44145355 901.8327919 -754.95758057 900.89755249 C-759.75819855 892.19146611 -764.49026289 883.45044505 -769.18554688 874.68701172 C-773.70189158 866.26134063 -778.29441636 857.88470597 -782.99804688 849.56201172 C-783.51391357 848.64887207 -784.02978027 847.73573242 -784.5612793 846.79492188 C-787.95058653 840.82872562 -791.44812887 834.93379486 -794.99804688 829.06201172 C-795.99856128 827.39565381 -796.99869723 825.72906843 -797.99804688 824.06201172 C-790.90885753 812.34641972 -783.77607282 800.66142522 -776.49804688 789.06201172 C-771.0403228 780.36090455 -765.65812693 771.61796503 -760.33129883 762.83618164 C-755.97918724 755.6637412 -751.58943799 748.51526004 -747.18554688 741.37451172 C-739.8144645 729.41523382 -732.51400736 717.41423171 -725.23382568 705.39952087 C-722.68202798 701.18861908 -720.12619014 696.98018871 -717.56835938 692.77294922 C-711.35422548 682.55035384 -705.14215132 672.32692905 -698.99804688 662.06201172 C-692.12074314 650.57214286 -685.15936842 639.13337512 -678.20361328 627.69091797 C-674.98545342 622.39655455 -671.77057195 617.10020096 -668.55551147 611.80395508 C-666.78649742 608.88988847 -665.01726064 605.97595709 -663.24804688 603.06201172 C-662.53971248 601.8953457 -661.83137915 600.72867903 -661.12304688 599.56201172 C-656.87304683 592.56201165 -656.87304683 592.56201165 -655.81059265 590.81208801 C-655.10210567 589.64516768 -654.39361975 588.4782467 -653.68513489 587.31132507 C-651.91666109 584.39853425 -650.14816897 581.48575456 -648.37963867 578.57299805 C-644.80020877 572.67765746 -641.22110178 566.7821212 -637.64257812 560.88623047 C-634.0955105 555.04223083 -630.54739507 549.19886844 -626.99853516 543.35595703 C-625.6997683 541.21744562 -624.40125108 539.07878257 -623.10302734 536.93994141 C-616.45666972 525.99111932 -609.7810483 515.06199335 -603.02783203 504.17871094 C-599.38821174 498.31262819 -595.7661455 492.43603365 -592.15283203 486.55371094 C-576.5202437 461.10609842 -560.60505371 435.83882636 -544.55664062 410.65185547 C-542.23113433 407.00147683 -539.91092265 403.34782892 -537.59570312 399.69091797 C-529.00509795 386.13168582 -520.26233224 372.67570702 -511.44488525 359.26318359 C-509.82453759 356.79804045 -508.20499853 354.33236694 -506.58544922 351.86669922 C-503.40957641 347.03241318 -500.23126124 342.19973925 -497.05154419 337.36798096 C-495.78418938 335.44182948 -494.51730892 333.51536579 -493.25094604 331.58856201 C-486.01948878 320.58815556 -478.72281231 309.64303053 -471.21914673 298.82620239 C-469.0723401 295.72459181 -466.94274285 292.61117487 -464.81054688 289.49951172 C-460.16345672 282.7359552 -455.4907653 275.99017637 -450.81054688 269.24951172 C-449.83081909 267.83593384 -449.83081909 267.83593384 -448.83129883 266.39379883 C-442.21789394 256.88052292 -435.44466679 247.50484744 -428.31054688 238.37451172 C-427.71677246 237.61267578 -427.12299805 236.85083984 -426.51123047 236.06591797 C-421.38543921 229.51184986 -416.15577616 223.04570218 -410.88867188 216.60498047 C-408.52487484 213.71445117 -406.1918687 210.80131732 -403.87304688 207.87451172 C-399.51375178 202.41171306 -394.99192847 197.08947474 -390.45556641 191.77392578 C-389.00466316 190.06978281 -387.56135477 188.35944835 -386.11914062 186.64794922 C-379.24613613 178.52122582 -372.09219433 170.70298496 -364.78466797 162.96630859 C-362.99397361 161.05767017 -361.22212878 159.13316762 -359.45507812 157.20263672 C-352.87301841 150.03015969 -346.11540819 143.22527513 -338.88867188 136.70263672 C-336.46592029 134.48942041 -334.15469987 132.23036482 -331.87304688 129.87451172 C-328.09224794 126.03016994 -323.96669397 122.70199922 -319.76367188 119.33154297 C-317.21062367 117.2364568 -314.79038743 115.06079621 -312.37304688 112.81201172 C-305.3110058 106.39602487 -297.64587104 100.7527672 -289.99804688 95.06201172 C-289.26489258 94.51464355 -288.53173828 93.96727539 -287.77636719 93.40332031 C-265.9482078 77.16977321 -242.63098273 62.85939276 -218.09716797 51.07910156 C-215.84116761 49.98599881 -213.60159762 48.86275886 -211.36132812 47.73779297 C-146.5364188 15.56476844 -72.00026954 1.48925639 0 0 Z " fill="#E6E7E7" transform="translate(2588.998046875,1074.93798828125)"/>
<path d="M0 0 C14.9731277 12.82499432 23.97030025 31.05583607 25.64794922 50.67236328 C26.06496063 62.45342566 23.80073924 73.05403534 20.8180542 84.39840698 C19.89358777 87.91714009 18.99596828 91.44188673 18.10400391 94.96899414 C17.06796315 99.06581359 16.03054174 103.1622429 14.98483276 107.25660706 C11.67879736 120.21351148 8.47844313 133.19562799 5.296875 146.18359375 C5.03202868 147.26473324 4.76718235 148.34587273 4.49431038 149.45977402 C3.12056625 155.0691146 1.74791441 160.67872178 0.37576294 166.28845215 C-1.32427313 173.2375787 -3.0280715 180.18577947 -4.73266602 187.13378906 C-12.30602393 218.0053791 -19.85771582 248.88220083 -27.37866211 279.76660156 C-28.17166636 283.02279763 -28.96472402 286.27898069 -29.7578125 289.53515625 C-29.95349634 290.33864376 -30.14918018 291.14213127 -30.35079384 291.96996689 C-33.49048376 304.85982827 -36.64552697 317.74588897 -39.80601692 330.63066483 C-41.28028593 336.64243906 -42.75282497 342.65463734 -44.22540188 348.66682625 C-45.6390067 354.43724694 -47.05551099 360.20694584 -48.47416687 365.97612667 C-49.34687442 369.5281402 -50.21679565 373.08083181 -51.08595657 376.63371468 C-51.48981201 378.28203384 -51.89483946 379.93006637 -52.30112839 381.5777874 C-52.85840399 383.83846264 -53.41150082 386.10012206 -53.96362305 388.36206055 C-54.27414108 389.62696823 -54.58465912 390.89187592 -54.90458679 392.19511414 C-55.68050954 395.71825921 -56.22595016 399.17504004 -56.6875 402.75 C-24.60997477 392.69435867 4.30151328 380.08823502 31.3125 359.75 C31.8895166 359.31719727 32.4665332 358.88439453 33.06103516 358.43847656 C41.40952338 352.13625413 49.17325233 345.37040755 56.77197266 338.18896484 C58.27156969 336.7882319 59.79134778 335.41495106 61.32421875 334.05078125 C66.08781758 329.80708407 70.53985817 325.55262721 74.64453125 320.66796875 C76.40201331 318.64707018 78.26405076 316.80048718 80.1875 314.9375 C84.1357397 311.05011949 87.57016153 306.84526024 91.03515625 302.52734375 C93.17740351 299.91475747 95.39890571 297.42190984 97.6875 294.9375 C102.19139541 289.98867905 106.29193418 284.78275705 110.390625 279.5 C114.0125397 274.83263523 117.71993444 270.23423957 121.42895508 265.63598633 C123.49943812 263.05999724 125.47791351 260.50187973 127.3125 257.75 C131.32041178 259.08597059 132.06233071 261.47751996 133.8671875 265.0390625 C134.20477585 265.68512451 134.5423642 266.33118652 134.8901825 266.99682617 C135.6174095 268.39039163 136.34039463 269.78617712 137.05960083 271.18389893 C138.96378132 274.88303447 140.89931594 278.56571639 142.83203125 282.25 C143.21743576 282.98650787 143.60284027 283.72301575 143.99992371 284.48184204 C147.16744026 290.51871826 150.47840261 296.46390502 153.875 302.375 C159.69719618 312.53336544 165.21355436 322.84182595 170.67016602 333.19970703 C174.2365202 339.95442123 177.93941969 346.59983388 181.82080078 353.17895508 C183.54018574 356.14243184 185.08272813 359.16036643 186.5625 362.25 C188.66613933 366.56342559 190.864584 370.7716281 193.234375 374.9453125 C193.99572754 376.29206055 193.99572754 376.29206055 194.77246094 377.66601562 C195.78622722 379.44926717 196.81008527 381.22682539 197.84472656 382.99804688 C198.3084668 383.81595703 198.77220703 384.63386719 199.25 385.4765625 C199.67152344 386.20439941 200.09304688 386.93223633 200.52734375 387.68212891 C201.48241688 390.19751118 201.28490452 391.27231839 200.3125 393.75 C196.12188432 399.6222576 191.27567973 404.99027864 186.07788086 409.98388672 C184.40160624 411.66085679 182.87716249 413.39251899 181.34765625 415.203125 C176.79264629 420.44294968 171.88622452 425.32631462 166.9699707 430.22290039 C165.37791034 431.80959946 163.7912701 433.40157742 162.20507812 434.99414062 C156.74650953 440.45659804 151.2063208 445.75472248 145.3125 450.75 C144.22905806 451.69891256 143.14697763 452.64938239 142.06640625 453.6015625 C133.12232449 461.4032841 123.82615482 468.65842363 114.3125 475.75 C113.2294458 476.56452637 113.2294458 476.56452637 112.12451172 477.39550781 C93.9261571 491.04731562 74.36983824 502.07959672 54.3125 512.75 C53.16007812 513.36875 52.00765625 513.9875 50.8203125 514.625 C44.0915558 518.1261417 37.1561566 520.80216141 30.0390625 523.38671875 C27.18194403 524.43193295 24.3708146 525.52150365 21.5625 526.6875 C19.81540009 527.38233679 18.06490109 528.06864351 16.3125 528.75 C15.70712402 528.98799316 15.10174805 529.22598633 14.47802734 529.47119141 C-0.95012165 535.45010196 -16.89188416 539.19567244 -32.97998047 542.89697266 C-36.09439755 543.61353879 -39.20583908 544.34119218 -42.31640625 545.07421875 C-55.37966439 548.11590546 -68.29612676 549.76391859 -81.65234375 550.8046875 C-82.81117065 550.89613037 -83.96999756 550.98757324 -85.16394043 551.08178711 C-88.00502959 551.30579465 -90.84621469 551.52849665 -93.6875 551.75 C-93.97120453 552.90987427 -94.25490906 554.06974854 -94.54721069 555.26477051 C-97.22471505 566.2111444 -99.902433 577.15746601 -102.58035851 588.10373688 C-103.9569996 593.73091562 -105.33356621 599.35811256 -106.70996094 604.98535156 C-108.03898338 610.41890216 -109.36820364 615.85240434 -110.69755936 621.28587341 C-111.20395536 623.35581245 -111.71028084 625.42576874 -112.21653366 627.4957428 C-112.9272078 630.40150485 -113.63813572 633.30720471 -114.34912109 636.21289062 C-114.55699753 637.06309784 -114.76487396 637.91330505 -114.97904968 638.78927612 C-115.54702882 641.10989035 -116.11666726 643.43008619 -116.6875 645.75 C-116.87200336 646.50122635 -117.05650673 647.2524527 -117.2466011 648.02644348 C-121.89676632 666.82507005 -132.91454458 682.3822385 -149.3125 692.8125 C-155.15710791 696.20700551 -161.30602825 698.56512918 -167.6875 700.75 C-168.39648438 700.99878906 -169.10546875 701.24757813 -169.8359375 701.50390625 C-184.97867841 706.07228589 -206.08840891 702.42535868 -219.87817383 695.19067383 C-231.59491439 688.6943728 -240.39015227 679.97155075 -247.6875 668.75 C-248.15800781 668.069375 -248.62851563 667.38875 -249.11328125 666.6875 C-258.52047197 651.77579211 -260.08378552 632.53009647 -256.29467773 615.66967773 C-255.42257448 612.10446913 -254.47803312 608.56003545 -253.53076172 605.01416016 C-252.55709657 601.2452247 -251.663214 597.46001976 -250.78515625 593.66796875 C-250.62013107 592.95543442 -250.4551059 592.24290009 -250.28507996 591.5087738 C-249.94538899 590.04060681 -249.60586764 588.57240057 -249.26651001 587.10415649 C-246.60196475 575.60449868 -243.80716503 564.15321157 -240.76586914 552.74658203 C-238.85729829 545.54105916 -237.19627213 538.29495924 -235.58129883 531.01879883 C-233.89993308 523.51531047 -232.00383849 516.07945134 -230.00585938 508.65429688 C-227.35689224 498.73745937 -225.0437615 488.73942727 -222.6875 478.75 C-212.63896871 436.21232677 -212.63896871 436.21232677 -208.66650391 421.34912109 C-206.76287962 414.18293634 -205.11807631 406.97101342 -203.51049805 399.73339844 C-202.02214079 393.08209657 -200.33483521 386.50362251 -198.56005859 379.92382812 C-196.97266792 373.98008316 -195.58357976 368.00535598 -194.25 362 C-192.33830942 353.39739241 -190.18487367 344.88111624 -187.92041016 336.36523438 C-185.9395745 328.85917762 -184.19445378 321.31594792 -182.51171875 313.73828125 C-181.02269648 307.08540612 -179.33527429 300.50525037 -177.56005859 293.92382812 C-175.97266792 287.98008316 -174.58357976 282.00535598 -173.25 276 C-171.55449458 268.3702256 -169.69597906 260.80336382 -167.6875 253.25 C-165.70133296 245.77933932 -163.86112782 238.29684673 -162.1875 230.75 C-160.31894431 222.33019765 -158.24691666 213.98281062 -156.00585938 205.65429688 C-153.35689224 195.73745937 -151.0437615 185.73942727 -148.6875 175.75 C-138.49451383 132.60081705 -138.49451383 132.60081705 -134.76634216 118.66183472 C-133.19883336 112.77323612 -131.72982854 106.8685091 -130.33203125 100.9375 C-130.11857056 100.03662155 -129.90510986 99.1357431 -129.68518066 98.20756531 C-129.01771775 95.38874497 -128.35224531 92.56946236 -127.6875 89.75 C-127.37309464 88.41650009 -127.37309464 88.41650009 -127.05233765 87.05606079 C-126.63729903 85.29534934 -126.22232581 83.53462248 -125.80741882 81.77388 C-124.97714699 78.25233148 -124.14502972 74.73122043 -123.3125 71.21020508 C-122.89463229 69.43998035 -122.47797232 67.6694701 -122.0625 65.89868164 C-119.86484361 56.5371805 -117.60937791 47.19668772 -115.08203125 37.91796875 C-114.89064575 37.20252396 -114.69926025 36.48707916 -114.5020752 35.74995422 C-109.33422284 17.15930709 -97.25942473 1.94651376 -80.5625 -7.625 C-54.43494082 -22.03207655 -23.30865387 -18.22897482 0 0 Z " fill="#E4E4E4" transform="translate(1531.6875,1841.25)"/>
<path d="M0 0 C14.93794071 11.98673727 25.33126567 27.39622025 28.5 46.5625 C29.04612765 53.30770048 28.91434847 60.09128398 28.89440918 66.85290527 C28.89930313 68.91141164 28.90549527 70.96991526 28.91286707 73.02841425 C28.92922619 78.66351825 28.92695681 84.29848197 28.9214921 89.93360138 C28.91881687 96.01973678 28.93336314 102.10583521 28.94558716 108.19195557 C28.96662405 120.10845058 28.97120169 132.02489827 28.96939927 143.94140524 C28.96802409 153.63202933 28.97185412 163.32263868 28.97932434 173.01325989 C28.9803747 174.40748239 28.98142232 175.8017049 28.9824672 177.19592741 C28.98298655 177.88806436 28.98350589 178.58020132 28.98404097 179.29331212 C28.98456112 179.98674795 28.98508126 180.68018378 28.98561716 181.39463282 C28.98640315 182.43658638 28.98640315 182.43658638 28.98720502 183.4995895 C29.00178211 203.0289088 29.01007369 222.55822268 29.00545502 242.0875473 C29.00528306 242.82328087 29.00511111 243.55901444 29.00493394 244.31704297 C29.00404511 248.04566845 29.0031003 251.77429391 29.00213593 255.50291938 C29.0019449 256.24337718 29.00175387 256.98383499 29.00155704 257.74673092 C29.00116995 259.24411698 29.00077962 260.74150304 29.00038607 262.23888911 C28.99442005 285.52258129 29.00983915 308.80617399 29.04199219 332.08984375 C29.07812492 358.27734021 29.09739404 384.4647736 29.09245348 410.65229654 C29.09198354 413.44860235 29.09157328 416.24490817 29.09120178 419.04121399 C29.0910994 419.72968276 29.09099701 420.41815154 29.09089152 421.12748301 C29.0897 431.49059116 29.10162075 441.85363085 29.12034607 452.21672058 C29.14165502 464.01502324 29.14490272 475.8132084 29.12604648 487.61152643 C29.11691813 493.62518102 29.11565652 499.63855145 29.13640213 505.65218353 C29.15522461 511.16965669 29.15048296 516.68661518 29.12785631 522.20406944 C29.12369883 524.18790353 29.12777311 526.17177797 29.14145225 528.15556926 C29.26154991 546.86377031 26.89700641 564.21792713 15.5 579.5625 C14.85933594 580.46355469 14.21867187 581.36460937 13.55859375 582.29296875 C1.56000334 598.31532887 -16.14076518 606.44131724 -35.5 609.5625 C-38.92595436 609.93993565 -42.0743046 609.90973388 -45.5 609.5625 C-46.67175781 609.44519531 -47.84351562 609.32789062 -49.05078125 609.20703125 C-67.67397459 607.01716831 -84.69738832 600.99234493 -96.82910156 585.91015625 C-111.3221057 566.9729071 -115.28307473 548.94886257 -115.12818909 525.30764771 C-115.13324759 523.24208268 -115.1404864 521.17652206 -115.14968723 519.11097133 C-115.1684499 513.49365072 -115.15646686 507.87677114 -115.1389643 502.25946236 C-115.12550773 496.17903065 -115.1410567 490.09866 -115.15278625 484.01823425 C-115.17004786 472.81667866 -115.16480867 461.61526503 -115.1477995 450.413723 C-115.13218576 440.06622668 -115.12639048 429.71878059 -115.1301403 419.37127304 C-115.13037711 418.68289254 -115.13061391 417.99451203 -115.13085788 417.28527151 C-115.13183291 414.49044846 -115.13285375 411.69562543 -115.13394299 408.90080242 C-115.14400662 382.73025256 -115.12581402 356.55979088 -115.09422263 330.38926176 C-115.06634708 307.16475012 -115.06140892 283.94034321 -115.07641602 260.71582031 C-115.08023881 254.76409982 -115.08403371 248.81237931 -115.0875864 242.86065865 C-115.08824312 241.76138307 -115.08824312 241.76138307 -115.08891311 240.63989991 C-115.10016233 221.19785551 -115.09279751 201.75581875 -115.07970566 182.31377685 C-115.07831717 180.2209996 -115.07693646 178.12822234 -115.07556724 176.03544507 C-115.07465786 174.6473235 -115.07373519 173.25920193 -115.07279913 171.87108037 C-115.0660168 161.52877014 -115.06865151 151.1864902 -115.07574654 140.84418106 C-115.08372674 129.08359522 -115.07670291 117.32309851 -115.0515715 105.56252952 C-115.03909396 99.56581095 -115.03290908 93.56926732 -115.04411316 87.57254219 C-115.05418515 82.07795503 -115.04563271 76.5837161 -115.02253198 71.08917116 C-115.0173911 69.10703548 -115.01890108 67.12486837 -115.02792663 65.14274658 C-115.12194197 42.61290858 -109.32729096 23.74616444 -93.2265625 7.23046875 C-67.6168488 -17.0946153 -28.83202372 -21.01501855 0 0 Z " fill="#0A87D6" transform="translate(2254.5,1756.4375)"/>
<path d="M0 0 C0.99 0.495 0.99 0.495 2 1 C0.16229064 3.34818418 -0.85004785 3.9666773 -3.8125 4.625 C-4.864375 4.74875 -5.91625 4.8725 -7 5 C-7.89332031 5.16242188 -8.78664063 5.32484375 -9.70703125 5.4921875 C-13.42508201 6.06555239 -17.12309105 6.30528573 -20.875 6.5 C-27.11106878 6.84313433 -27.11106878 6.84313433 -33.3125 7.5625 C-36.39511646 7.92823416 -39.16189649 7.99882404 -42.25 7.9375 C-47.31047191 7.88166031 -51.99103432 8.57741644 -56.95703125 9.49609375 C-60.01948864 10.00322726 -63.02948125 10.28200572 -66.125 10.5 C-71.53323445 10.89241807 -76.7173901 11.79621943 -82 13 C-79.51270771 9.4467253 -77.09389765 8.58638253 -73 7.8125 C-65.79232096 6.72706353 -58.55910453 6.16823498 -51.28125 5.82421875 C-44.24168567 5.47085479 -37.48686731 4.83556756 -30.5625 3.5 C-24.62919355 2.36127768 -18.78285061 1.61075545 -12.75 1.25 C-12.04689697 1.20552734 -11.34379395 1.16105469 -10.61938477 1.11523438 C-6.91098387 0.9314584 -3.60167767 1.0786406 0 2 C0 1.34 0 0.68 0 0 Z " fill="#D3D3D3" transform="translate(2603,1168)"/>
<path d="M0 0 C0.33 1.32 0.66 2.64 1 4 C8.48716794 3.51114711 15.6769875 2.62451577 23 1 C24.6660346 0.66352176 26.33254627 0.32937358 28 0 C27 3 27 3 24.5 4.6875 C20.80893117 6.07165081 18.50638721 6.12428837 14.65625 5.97265625 C9.38223687 6.02694756 4.18610067 7.10225151 -1 8 C-0.67 5.36 -0.34 2.72 0 0 Z " fill="#D4D4D4" transform="translate(1450,2340)"/>
<path d="M0 0 C5.1948185 0.54069916 10.27758778 0.61117989 15.49609375 0.5 C17.89282472 0.55698023 19.84081318 0.87130399 22.125 1.5625 C22.125 2.2225 22.125 2.8825 22.125 3.5625 C17.66668018 3.59141546 13.20838431 3.60926981 8.75 3.625 C7.47898437 3.63337891 6.20796875 3.64175781 4.8984375 3.65039062 C3.08085937 3.65522461 3.08085937 3.65522461 1.2265625 3.66015625 C-0.45445557 3.66801147 -0.45445557 3.66801147 -2.16943359 3.67602539 C-4.875 3.5625 -4.875 3.5625 -6.875 2.5625 C-6.875 1.9025 -6.875 1.2425 -6.875 0.5625 C-4.28821255 -0.73089373 -2.86336004 -0.33613357 0 0 Z " fill="#087FCA" transform="translate(2185.875,2485.4375)"/>
<path d="M0 0 C0 0.66 0 1.32 0 2 C-7.05112439 4.21211746 -13.64657821 4.20177072 -21 4 C-17.4505358 1.63369053 -15.22375509 1.47687557 -11 1 C-10.21238281 0.9071875 -9.42476562 0.814375 -8.61328125 0.71875 C-2.4140625 0 -2.4140625 0 0 0 Z " fill="#DBDBDB" transform="translate(2592,1169)"/>
<path d="M0 0 C1.958964 0.30852185 3.91715713 0.6219418 5.875 0.9375 C6.96554687 1.11152344 8.05609375 1.28554687 9.1796875 1.46484375 C12 2 12 2 14 3 C14 3.66 14 4.32 14 5 C8.34605369 5.34615998 4.96993194 4.43425238 0 2 C0 1.34 0 0.68 0 0 Z " fill="#087EC9" transform="translate(1034,1175)"/>
<path d="M0 0 C0.886875 0.103125 1.77375 0.20625 2.6875 0.3125 C2.6875 0.9725 2.6875 1.6325 2.6875 2.3125 C-0.96043184 3.58503436 -4.5061543 4.64079194 -8.3125 5.3125 C-4.12788462 0.38942308 -4.12788462 0.38942308 0 0 Z " fill="#D5D5D5" transform="translate(2518.3125,1177.6875)"/>
</svg>
